<?xml version="1.0" encoding="UTF-8"?>
<svg id="Layer_1" data-name="Layer 1" xmlns="http://www.w3.org/2000/svg" viewBox="0 0 32 32">
  <defs>
    <style>
      .cls-1 {
        fill: #3387c5;
      }
    </style>
  </defs>
  <path class="cls-1" d="M16,23c-3.86,0-7-3.14-7-7s3.14-7,7-7,7,3.14,7,7-3.14,7-7,7ZM16,11c-2.76,0-5,2.24-5,5s2.24,5,5,5,5-2.24,5-5-2.24-5-5-5Z"/>
  <path class="cls-1" d="M17.25,3l.46,1.86.27,1.09,1.07.34c.54.17,1.1.4,1.65.69l.99.52.96-.58,1.65-.99,1.77,1.77-.99,1.65-.58.96.52.99c.29.55.52,1.1.69,1.65l.34,1.07,1.09.27,1.86.46v2.5l-1.86.46-1.09.27-.34,1.07c-.17.54-.4,1.1-.69,1.65l-.52.99.58.96.99,1.65-1.77,1.77-1.65-.99-.96-.58-.99.52c-.55.29-1.1.52-1.65.69l-1.07.34-.27,1.09-.46,1.86h-2.5l-.46-1.86-.27-1.09-1.07-.34c-.54-.17-1.1-.4-1.65-.69l-.99-.52-.96.58-1.65.99-1.77-1.77.99-1.65.58-.96-.52-.99c-.29-.55-.52-1.1-.69-1.65l-.34-1.07-1.09-.27-1.86-.46v-2.5l1.86-.46,1.09-.27.34-1.07c.17-.54.4-1.1.69-1.65l.52-.99-.58-.96-.99-1.65,1.77-1.77,1.65.99.96.58.99-.52c.55-.29,1.1-.52,1.65-.69l1.07-.34.27-1.09.46-1.86h2.5M18.81,1h-5.62l-.84,3.37c-.69.22-1.35.5-1.97.83l-2.99-1.79-3.98,3.98,1.79,2.99c-.33.63-.61,1.29-.83,1.97l-3.37.84v5.62l3.37.84c.22.69.5,1.35.83,1.97l-1.79,2.99,3.98,3.98,2.99-1.79c.63.33,1.29.61,1.97.83l.84,3.37h5.62l.84-3.37c.69-.22,1.35-.5,1.97-.83l2.99,1.79,3.98-3.98-1.79-2.99c.33-.63.61-1.29.83-1.97l3.37-.84v-5.62l-3.37-.84c-.22-.69-.5-1.35-.83-1.97l1.79-2.99-3.98-3.98-2.99,1.79c-.63-.33-1.29-.61-1.97-.83l-.84-3.37h0Z"/>
</svg>