<?xml version="1.0" encoding="UTF-8"?>
<svg id="Layer_1" data-name="Layer 1" xmlns="http://www.w3.org/2000/svg" viewBox="0 0 16 16">
  <defs>
    <style>
      .cls-1 {
        fill: #3387c5;
      }
    </style>
  </defs>
  <path class="cls-1" d="M8,6c1.1,0,2,.9,2,2s-.9,2-2,2-2-.9-2-2,.9-2,2-2M8,5c-1.66,0-3,1.34-3,3s1.34,3,3,3,3-1.34,3-3-1.34-3-3-3h0Z"/>
  <path class="cls-1" d="M8.52,2l.2.82.14.54.53.17c.25.08.5.19.76.32l.5.26.48-.29.72-.43.75.75-.43.73-.29.48.26.5c.13.25.24.51.32.76l.17.53.54.14.81.2v1.06l-.81.2-.54.14-.17.53c-.08.25-.19.51-.32.76l-.26.5.29.48.43.73-.75.75-.72-.43-.48-.29-.5.26c-.25.13-.51.24-.76.32l-.53.17-.14.54-.2.82h-1.06l-.2-.82-.14-.54-.53-.17c-.25-.08-.5-.19-.76-.32l-.5-.26-.48.29-.72.43-.75-.75.43-.73.29-.48-.26-.5c-.13-.25-.24-.51-.32-.76l-.17-.53-.54-.14-.81-.2v-1.06l.81-.2.54-.14.17-.53c.08-.25.19-.51.32-.76l.26-.5-.29-.48-.43-.73.75-.75.72.43.48.29.5-.26c.25-.13.51-.24.76-.32l.53-.17.14-.54.2-.82h1.06M9.3,1h-2.62l-.39,1.57c-.32.1-.63.23-.92.39l-1.39-.84-1.85,1.86.84,1.39c-.15.29-.28.6-.38.92l-1.57.39v2.62l1.57.39c.1.32.23.63.38.92l-.84,1.39,1.85,1.86,1.39-.84c.29.15.6.28.92.39l.39,1.57h2.62l.39-1.57c.32-.1.63-.23.92-.39l1.39.84,1.85-1.86-.84-1.39c.15-.29.28-.6.38-.92l1.57-.39v-2.62l-1.57-.39c-.1-.32-.23-.63-.38-.92l.84-1.39-1.85-1.86-1.39.84c-.29-.15-.6-.28-.92-.39l-.39-1.57h0Z"/>
</svg>