<?xml version="1.0" encoding="UTF-8"?>
<svg id="Layer_1" data-name="Layer 1" xmlns="http://www.w3.org/2000/svg" viewBox="0 0 24 24">
  <defs>
    <style>
      .cls-1 {
        fill: #3387c5;
      }
    </style>
  </defs>
  <path class="cls-1" d="M12,17.13c-2.83,0-5.13-2.3-5.13-5.13s2.3-5.13,5.13-5.13,5.13,2.3,5.13,5.13-2.3,5.13-5.13,5.13ZM12,8.33c-2.02,0-3.67,1.64-3.67,3.67s1.64,3.67,3.67,3.67,3.67-1.64,3.67-3.67-1.64-3.67-3.67-3.67Z"/>
  <path class="cls-1" d="M12.92,2.47l.34,1.36.2.8.78.25c.4.13.81.3,1.21.51l.73.38.7-.42,1.21-.73,1.3,1.3-.73,1.21-.42.7.38.73c.21.4.38.81.51,1.21l.25.78.8.2,1.36.34v1.83l-1.36.34-.8.2-.25.78c-.13.4-.3.81-.51,1.21l-.38.73.42.7.73,1.21-1.3,1.3-1.21-.73-.7-.42-.73.38c-.4.21-.81.38-1.21.51l-.78.25-.2.8-.34,1.36h-1.83l-.34-1.36-.2-.8-.78-.25c-.4-.13-.81-.3-1.21-.51l-.73-.38-.7.42-1.21.73-1.3-1.3.73-1.21.42-.7-.38-.73c-.21-.4-.38-.81-.51-1.21l-.25-.78-.8-.2-1.36-.34v-1.83l1.36-.34.8-.2.25-.78c.13-.4.3-.81.51-1.21l.38-.73-.42-.7-.73-1.21,1.3-1.3,1.21.73.7.42.73-.38c.4-.21.81-.38,1.21-.51l.78-.25.2-.8.34-1.36h1.83M14.06,1h-4.12l-.62,2.47c-.5.16-.99.36-1.45.61l-2.19-1.31-2.92,2.92,1.31,2.19c-.24.46-.45.94-.61,1.45l-2.47.62v4.12l2.47.62c.16.5.36.99.61,1.45l-1.31,2.19,2.92,2.92,2.19-1.31c.46.24.94.45,1.45.61l.62,2.47h4.12l.62-2.47c.5-.16.99-.36,1.45-.61l2.19,1.31,2.92-2.92-1.31-2.19c.24-.46.45-.94.61-1.45l2.47-.62v-4.12l-2.47-.62c-.16-.5-.36-.99-.61-1.45l1.31-2.19-2.92-2.92-2.19,1.31c-.46-.24-.94-.45-1.45-.61l-.62-2.47h0Z"/>
</svg>