<?xml version="1.0" encoding="UTF-8"?>
<svg id="Layer_1" data-name="Layer 1" xmlns="http://www.w3.org/2000/svg" viewBox="0 0 24 24">
  <defs>
    <style>
      .cls-1 {
        fill: #3387c5;
      }
    </style>
  </defs>
  <path class="cls-1" d="M12,16.67c-2.57,0-4.67-2.09-4.67-4.67s2.09-4.67,4.67-4.67,4.67,2.09,4.67,4.67-2.09,4.67-4.67,4.67ZM12,8.67c-1.84,0-3.33,1.5-3.33,3.33s1.5,3.33,3.33,3.33,3.33-1.5,3.33-3.33-1.5-3.33-3.33-3.33Z"/>
  <path class="cls-1" d="M12.83,3.33l.31,1.24.18.72.71.22c.36.11.73.27,1.1.46l.66.35.64-.38,1.1-.66,1.18,1.18-.66,1.1-.38.64.35.66c.19.37.35.74.46,1.1l.22.71.72.18,1.24.31v1.67l-1.24.31-.72.18-.22.71c-.11.36-.27.73-.46,1.1l-.35.66.38.64.66,1.1-1.18,1.18-1.1-.66-.64-.38-.66.35c-.37.19-.74.35-1.1.46l-.71.22-.18.72-.31,1.24h-1.67l-.31-1.24-.18-.72-.71-.22c-.36-.11-.73-.27-1.1-.46l-.66-.35-.64.38-1.1.66-1.18-1.18.66-1.1.38-.64-.35-.66c-.19-.37-.35-.74-.46-1.1l-.22-.71-.72-.18-1.24-.31v-1.67l1.24-.31.72-.18.22-.71c.11-.36.27-.73.46-1.1l.35-.66-.38-.64-.66-1.1,1.18-1.18,1.1.66.64.38.66-.35c.37-.19.74-.35,1.1-.46l.71-.22.18-.72.31-1.24h1.67M13.87,2h-3.75l-.56,2.25c-.46.14-.9.33-1.32.55l-1.99-1.2-2.65,2.65,1.2,1.99c-.22.42-.41.86-.55,1.32l-2.25.56v3.75l2.25.56c.14.46.33.9.55,1.32l-1.2,1.99,2.65,2.65,1.99-1.2c.42.22.86.41,1.32.55l.56,2.25h3.75l.56-2.25c.46-.14.9-.33,1.32-.55l1.99,1.2,2.65-2.65-1.2-1.99c.22-.42.41-.86.55-1.32l2.25-.56v-3.75l-2.25-.56c-.14-.46-.33-.9-.55-1.32l1.2-1.99-2.65-2.65-1.99,1.2c-.42-.22-.86-.41-1.32-.55l-.56-2.25h0Z"/>
</svg>