<?xml version="1.0" encoding="UTF-8"?>
<svg id="Layer_1" data-name="Layer 1" xmlns="http://www.w3.org/2000/svg" viewBox="0 0 24 24">
  <defs>
    <style>
      .cls-1 {
        fill: #4fa143;
      }

      .cls-2 {
        fill: #3387c5;
      }
    </style>
  </defs>
  <path class="cls-2" d="M12.01,20.33c-.12,0-.23,0-.35,0-4.6,0-7.12-1.33-7.33-1.85v-2.3c1.53.89,4.24,1.48,7.33,1.48.01,0,.03,0,.04,0,.05-.46.16-.91.31-1.34-.12,0-.23,0-.35,0-4.31,0-6.79-1.14-7.33-1.74v-2.4c1.53.89,4.24,1.48,7.33,1.48.84,0,1.64-.05,2.4-.13,1-.75,2.25-1.21,3.6-1.21.31,0,.6.03.9.07.15-.07.3-.14.44-.22v.3c.47.11.91.27,1.33.48v-6.81c0-1.74-3.88-3.16-8.67-3.16S3,4.41,3,6.16v12.35c0,1.74,3.88,3.16,8.67,3.16.34,0,.67,0,1-.02-.27-.41-.49-.85-.65-1.32ZM4.33,6.34c.09-.58,2.77-2,7.33-2s7.24,1.42,7.33,2h0c-.09.58-2.77,2-7.33,2s-7.24-1.42-7.33-2h0ZM4.33,8.1c1.53.94,4.24,1.56,7.33,1.56s5.8-.62,7.33-1.56v2.49c-.55.6-3.02,1.74-7.33,1.74s-6.79-1.14-7.33-1.74v-2.49Z"/>
  <rect class="cls-1" x="17" y="15" width="1.33" height="6.67"/>
  <rect class="cls-1" x="17" y="15" width="1.33" height="6.67" transform="translate(-.67 36) rotate(-90)"/>
</svg>