<?xml version="1.0" encoding="UTF-8"?>
<svg id="Layer_1" data-name="Layer 1" xmlns="http://www.w3.org/2000/svg" viewBox="0 0 24 24">
  <defs>
    <style>
      .cls-1 {
        fill: #3387c5;
      }
    </style>
  </defs>
  <path class="cls-1" d="M12.26,20.96c-.13,0-.26,0-.39,0-5.23,0-8.1-1.51-8.34-2.1v-2.62c1.75,1.01,4.83,1.68,8.34,1.68.02,0,.03,0,.04,0,.06-.53.18-1.04.35-1.52-.13,0-.26,0-.4,0-4.9,0-7.72-1.3-8.34-1.98v-2.74c1.75,1.01,4.83,1.68,8.34,1.68.95,0,1.86-.05,2.73-.14,1.14-.86,2.56-1.37,4.09-1.37.35,0,.69.03,1.02.08.17-.08.34-.16.5-.25v.34c.53.12,1.04.31,1.52.54v-7.75c0-1.98-4.42-3.59-9.86-3.59S2,2.85,2,4.83v14.06c0,1.98,4.42,3.59,9.86,3.59.38,0,.76-.01,1.14-.03-.31-.46-.55-.97-.74-1.5ZM3.52,5.04c.1-.66,3.15-2.28,8.34-2.28s8.24,1.62,8.34,2.27h0c-.1.66-3.15,2.28-8.34,2.28S3.62,5.69,3.52,5.04h0ZM3.52,7.05c1.75,1.07,4.83,1.78,8.34,1.78s6.6-.71,8.34-1.78v2.83c-.62.69-3.44,1.98-8.34,1.98s-7.72-1.3-8.34-1.98v-2.83Z"/>
  <rect class="cls-1" x="17.93" y="13.38" width="1.52" height="10.62"/>
  <rect class="cls-1" x="17.93" y="13.38" width="1.52" height="10.62" transform="translate(0 37.38) rotate(-90)"/>
</svg>