<?xml version="1.0" encoding="UTF-8"?>
<svg id="Layer_1" data-name="Layer 1" xmlns="http://www.w3.org/2000/svg" viewBox="0 0 32 32">
  <defs>
    <style>
      .cls-1 {
        fill: #3387c5;
      }
    </style>
  </defs>
  <path class="cls-1" d="M16.52,27.99c-.17,0-.34,0-.52,0-6.89,0-10.68-1.99-11-2.77v-3.45c2.3,1.33,6.36,2.22,11,2.22.02,0,.04,0,.06,0,.08-.7.24-1.37.47-2.01-.18,0-.35,0-.53,0-6.46,0-10.18-1.71-11-2.61v-3.61c2.3,1.33,6.36,2.22,11,2.22,1.25,0,2.46-.07,3.6-.19,1.5-1.13,3.37-1.81,5.4-1.81.46,0,.91.05,1.35.11.23-.11.45-.22.65-.33v.45c.7.16,1.37.4,2,.72V6.74c0-2.62-5.82-4.74-13-4.74S3,4.12,3,6.74v18.53c0,2.62,5.82,4.74,13,4.74.51,0,1.01-.01,1.5-.03-.4-.61-.73-1.27-.98-1.98ZM5,7c.13-.87,4.15-3,11-3s10.87,2.13,11,3h0c-.13.87-4.15,3-11,3s-10.87-2.13-11-3h0ZM5,9.66c2.3,1.41,6.36,2.34,11,2.34s8.7-.94,11-2.34v3.73c-.82.91-4.54,2.61-11,2.61s-10.18-1.71-11-2.61v-3.73Z"/>
  <rect class="cls-1" x="24" y="18" width="2" height="14"/>
  <rect class="cls-1" x="24" y="18" width="2" height="14" transform="translate(0 50) rotate(-90)"/>
</svg>