<?xml version="1.0" encoding="UTF-8"?>
<svg id="Layer_1" data-name="Layer 1" xmlns="http://www.w3.org/2000/svg" viewBox="0 0 16 16">
  <defs>
    <style>
      .cls-1 {
        fill: #4fa143;
      }

      .cls-2 {
        fill: #3387c5;
      }
    </style>
  </defs>
  <rect class="cls-1" x="11.01" y="12" width="2.99" height="1"/>
  <rect class="cls-1" x="12" y="10" width="1" height="5"/>
  <rect class="cls-1" x="12" y="10" width="1" height="5" transform="translate(0 25) rotate(-90)"/>
  <path class="cls-2" d="M8.27,13.99c-.09,0-.18,0-.27,0-3.08,0-4.8-.86-5-1.22v-1.76c1.07.59,2.91.98,5,.98.02,0,.03,0,.05,0,.04-.32.1-.63.2-.93-.09,0-.16,0-.25,0-2.83,0-4.51-.71-5-1.14v-1.92c1.07.59,2.91.98,5,.98.64,0,1.26-.04,1.84-.11.75-.55,1.66-.89,2.66-.89.15,0,.3.03.45.05.02,0,.03-.02.05-.02v.03c.35.04.68.11,1,.23V3.19c0-1.21-2.69-2.19-6-2.19S2,1.98,2,3.19v9.63c0,1.21,2.69,2.19,6,2.19.25,0,.5,0,.75-.02-.2-.3-.35-.64-.48-.99ZM8,2c3.28,0,5,1.11,5,1.5s-1.72,1.5-5,1.5-5-1.11-5-1.5,1.72-1.5,5-1.5ZM3,4.88c1.07.67,2.91,1.12,5,1.12s3.93-.45,5-1.12v2.06c-.49.43-2.17,1.14-5,1.14s-4.51-.71-5-1.14v-2.06Z"/>
</svg>