<?xml version="1.0" encoding="UTF-8"?>
<svg id="Layer_1" data-name="Layer 1" xmlns="http://www.w3.org/2000/svg" viewBox="0 0 24 24">
  <path d="M15.67,1c-1.53,0-2.88.79-3.67,1.97-.79-1.19-2.13-1.97-3.67-1.97H1v19.8h7.33c1.06,0,2.12.51,2.93,1.04v.16h1.47v-.16c.81-.53,1.87-1.04,2.93-1.04h7.33V1h-7.33ZM8.33,19.33H2.47V2.47h5.87c1.62,0,2.93,1.32,2.93,2.93v14.74c-.86-.45-1.88-.8-2.93-.8ZM21.53,19.33h-5.87c-1.06,0-2.07.35-2.93.8V5.4c0-1.62,1.32-2.93,2.93-2.93h5.87v16.87Z" fill="#3387c5"/>
  <rect x="3.93" y="6.13" width="5.87" height="1.47" fill="#3387c5"/>
  <rect x="3.93" y="9.07" width="2.93" height="1.47" fill="#3387c5"/>
  <rect x="3.93" y="12" width="5.87" height="1.47" fill="#3387c5"/>
  <rect x="3.93" y="14.93" width="2.93" height="1.47" fill="#3387c5"/>
  <rect x="14.2" y="6.13" width="5.87" height="1.47" fill="#3387c5"/>
  <rect x="14.2" y="9.07" width="2.93" height="1.47" fill="#3387c5"/>
  <rect x="14.2" y="12" width="5.87" height="1.47" fill="#3387c5"/>
  <rect x="14.2" y="14.93" width="2.93" height="1.47" fill="#3387c5"/>
</svg>