<?xml version="1.0" encoding="UTF-8"?>
<svg id="Layer_1" data-name="Layer 1" xmlns="http://www.w3.org/2000/svg" viewBox="0 0 32 32">
  <path d="M21,1c-2.09,0-3.93,1.07-5,2.69-1.07-1.62-2.91-2.69-5-2.69H1v27h10c1.45,0,2.89.7,4,1.42v.58h2v-.58c1.11-.72,2.55-1.42,4-1.42h10V1h-10ZM11,26H3V3h8c2.21,0,4,1.79,4,4v20.1c-1.17-.61-2.56-1.1-4-1.1ZM29,26h-8c-1.44,0-2.83.48-4,1.1V7c0-2.21,1.79-4,4-4h8v23Z" fill="#3387c5"/>
  <rect x="5" y="8" width="8" height="2" fill="#3387c5"/>
  <rect x="5" y="12" width="4" height="2" fill="#3387c5"/>
  <rect x="5" y="16" width="8" height="2" fill="#3387c5"/>
  <rect x="5" y="20" width="4" height="2" fill="#3387c5"/>
  <rect x="19" y="8" width="8" height="2" fill="#3387c5"/>
  <rect x="19" y="12" width="4" height="2" fill="#3387c5"/>
  <rect x="19" y="16" width="8" height="2" fill="#3387c5"/>
  <rect x="19" y="20" width="4" height="2" fill="#3387c5"/>
</svg>