<?xml version="1.0" encoding="UTF-8"?>
<svg id="Layer_1" data-name="Layer 1" xmlns="http://www.w3.org/2000/svg" viewBox="0 0 32 32">
  <defs>
    <style>
      .cls-1 {
        fill: #3387c5;
      }
    </style>
  </defs>
  <polygon class="cls-1" points="24 15.94 32 15.94 28 20.94 24 15.94"/>
  <path class="cls-1" d="M16,27c-6.07,0-11-4.93-11-11s4.93-11,11-11,11,4.93,11,11c0,.34-.02.67-.05,1-.08.82,1.42,2.99,1.42,2.99.4-1.26.63-2.59.63-3.99,0-7.18-5.82-13-13-13S3,8.82,3,16s5.82,13,13,13c3.59,0,6.84-1.46,9.19-3.81l-1.42-1.42c-1.99,1.99-4.74,3.23-7.77,3.23Z"/>
</svg>