<?xml version="1.0" encoding="UTF-8"?>
<svg id="Layer_1" data-name="Layer 1" xmlns="http://www.w3.org/2000/svg" viewBox="0 0 32 32">
  <defs>
    <style>
      .cls-1 {
        fill: #3387c5;
      }
    </style>
  </defs>
  <path class="cls-1" d="M16,28c-6.62,0-12-5.38-12-12S9.38,4,16,4s12,5.38,12,12c0,3.93-1.91,7.41-4.83,9.6.31.25.58.54.78.9.16.22.3.46.44.68,3.4-2.55,5.61-6.61,5.61-11.19,0-7.73-6.27-14-14-14S2,8.27,2,16s6.27,14,14,14c0,0,0-2,0-2Z"/>
  <path class="cls-1" d="M23,21v6-6M24,20h-2v8h2v-8h0Z"/>
  <polygon class="cls-1" points="30 26 22 26 22 28 30 28 30 26 30 26"/>
</svg>