<?xml version="1.0" encoding="UTF-8"?>
<svg id="Layer_1" data-name="Layer 1" xmlns="http://www.w3.org/2000/svg" viewBox="0 0 24 24">
  <g id="root">
    <defs>
      <style>
        .cls-1 {
        fill: #3387c5;
        }
      </style>
    </defs>
    <polygon class="cls-1" points="18 11.95 24 11.95 21 15.7 18 11.95" />
    <path class="cls-1"
      d="M12,20.25c-4.55,0-8.25-3.7-8.25-8.25S7.45,3.75,12,3.75s8.25,3.7,8.25,8.25c0,.25-.01.5-.03.75-.06.61,1.06,2.24,1.06,2.24.3-.94.47-1.95.47-2.99,0-5.38-4.37-9.75-9.75-9.75S2.25,6.62,2.25,12s4.37,9.75,9.75,9.75c2.69,0,5.13-1.09,6.89-2.86l-1.06-1.06c-1.49,1.49-3.56,2.42-5.83,2.42Z" />
  </g>
</svg>