<?xml version="1.0" encoding="UTF-8"?>
<svg id="Layer_1" data-name="Layer 1" xmlns="http://www.w3.org/2000/svg" viewBox="0 0 16 16">
  <defs>
    <style>
      .cls-1 {
        fill: #3387c5;
      }
    </style>
  </defs>
  <polygon class="cls-1" points="12 7.47 16 7.47 14 9.97 12 7.47"/>
  <path class="cls-1" d="M11.88,11.88c-1,1-2.37,1.62-3.88,1.62-3.03,0-5.5-2.47-5.5-5.5s2.47-5.5,5.5-5.5,5.5,2.47,5.5,5.5c0,.08,0,.15-.01.23.03,0,.06,0,.1,0,.35,0,.64.08.89.21,0-.14.02-.28.02-.43,0-3.58-2.92-6.5-6.5-6.5S1.5,4.42,1.5,8s2.92,6.5,6.5,6.5c1.79,0,3.41-.74,4.59-1.91l-.7-.7Z"/>
</svg>