<?xml version="1.0" encoding="UTF-8"?>
<svg id="Layer_1" data-name="Layer 1" xmlns="http://www.w3.org/2000/svg" viewBox="0 0 16 16">
  <defs>
    <style>
      .cls-1 {
      fill: #3387c5;
      }
    </style>
  </defs>
  <polygon class="cls-1" points="12 10 11 10 11 14 12 14 12 10 12 10" />
  <polygon class="cls-1" points="15 13 11 13 11 14 15 14 15 13 15 13" />
  <path class="cls-1"
    d="M8,1c-3.87,0-7,3.13-7,7s3.13,7,7,7v-1.1c-3.25,0-5.9-2.65-5.9-5.9s2.65-5.9,5.9-5.9,5.9,2.65,5.9,5.9c0,2.04-1.04,3.84-2.62,4.9.33.2.57.5.71.85,1.82-1.26,3.01-3.37,3.01-5.75,0-3.87-3.13-7-7-7Z" />
</svg>